<mxfile host="app.diagrams.net" agent="Mozilla/5.0 (Windows NT 10.0; Win64; x64) AppleWebKit/537.36 (KHTML, like Gecko) Chrome/127.0.0.0 Safari/537.36" version="24.7.5">
  <diagram id="C5RBs43oDa-KdzZeNtuy" name="Page-1">
    <mxGraphModel dx="2261" dy="746" grid="1" gridSize="10" guides="1" tooltips="1" connect="1" arrows="1" fold="1" page="1" pageScale="1" pageWidth="827" pageHeight="1169" math="0" shadow="0">
      <root>
        <mxCell id="WIyWlLk6GJQsqaUBKTNV-0" />
        <mxCell id="WIyWlLk6GJQsqaUBKTNV-1" parent="WIyWlLk6GJQsqaUBKTNV-0" />
        <mxCell id="h3pDS9H2A7vJjk51DCKi-2" value="开始" style="shape=hexagon;perimeter=hexagonPerimeter2;whiteSpace=wrap;html=1;fixedSize=1;" vertex="1" parent="WIyWlLk6GJQsqaUBKTNV-1">
          <mxGeometry x="360" y="30" width="120" height="50" as="geometry" />
        </mxCell>
        <mxCell id="h3pDS9H2A7vJjk51DCKi-19" style="edgeStyle=orthogonalEdgeStyle;rounded=0;orthogonalLoop=1;jettySize=auto;html=1;entryX=0.5;entryY=0;entryDx=0;entryDy=0;" edge="1" parent="WIyWlLk6GJQsqaUBKTNV-1" source="h3pDS9H2A7vJjk51DCKi-3" target="h3pDS9H2A7vJjk51DCKi-6">
          <mxGeometry relative="1" as="geometry" />
        </mxCell>
        <mxCell id="h3pDS9H2A7vJjk51DCKi-3" value="根据查询条件获取需要信息分类的id" style="rounded=0;whiteSpace=wrap;html=1;" vertex="1" parent="WIyWlLk6GJQsqaUBKTNV-1">
          <mxGeometry x="360" y="130" width="120" height="40" as="geometry" />
        </mxCell>
        <mxCell id="h3pDS9H2A7vJjk51DCKi-20" style="edgeStyle=orthogonalEdgeStyle;rounded=0;orthogonalLoop=1;jettySize=auto;html=1;" edge="1" parent="WIyWlLk6GJQsqaUBKTNV-1" source="h3pDS9H2A7vJjk51DCKi-4" target="h3pDS9H2A7vJjk51DCKi-9">
          <mxGeometry relative="1" as="geometry" />
        </mxCell>
        <mxCell id="h3pDS9H2A7vJjk51DCKi-4" value="支付单信息分类（curr_state=1，已对账成功）" style="rounded=0;whiteSpace=wrap;html=1;align=left;" vertex="1" parent="WIyWlLk6GJQsqaUBKTNV-1">
          <mxGeometry x="160" y="260" width="120" height="40" as="geometry" />
        </mxCell>
        <mxCell id="h3pDS9H2A7vJjk51DCKi-17" style="edgeStyle=orthogonalEdgeStyle;rounded=0;orthogonalLoop=1;jettySize=auto;html=1;" edge="1" parent="WIyWlLk6GJQsqaUBKTNV-1" source="h3pDS9H2A7vJjk51DCKi-5" target="h3pDS9H2A7vJjk51DCKi-16">
          <mxGeometry relative="1" as="geometry">
            <mxPoint x="640" y="450" as="targetPoint" />
          </mxGeometry>
        </mxCell>
        <mxCell id="h3pDS9H2A7vJjk51DCKi-5" value="退费信息分类（curr_state=10，退费对账成功）" style="rounded=0;whiteSpace=wrap;html=1;align=left;" vertex="1" parent="WIyWlLk6GJQsqaUBKTNV-1">
          <mxGeometry x="580" y="260" width="120" height="40" as="geometry" />
        </mxCell>
        <mxCell id="h3pDS9H2A7vJjk51DCKi-7" style="edgeStyle=orthogonalEdgeStyle;rounded=0;orthogonalLoop=1;jettySize=auto;html=1;entryX=0.5;entryY=0;entryDx=0;entryDy=0;" edge="1" parent="WIyWlLk6GJQsqaUBKTNV-1" source="h3pDS9H2A7vJjk51DCKi-6" target="h3pDS9H2A7vJjk51DCKi-4">
          <mxGeometry relative="1" as="geometry" />
        </mxCell>
        <mxCell id="h3pDS9H2A7vJjk51DCKi-6" value="支付单当前对账状态" style="rhombus;whiteSpace=wrap;html=1;" vertex="1" parent="WIyWlLk6GJQsqaUBKTNV-1">
          <mxGeometry x="380" y="200" width="80" height="80" as="geometry" />
        </mxCell>
        <mxCell id="h3pDS9H2A7vJjk51DCKi-8" style="edgeStyle=orthogonalEdgeStyle;rounded=0;orthogonalLoop=1;jettySize=auto;html=1;entryX=0.625;entryY=-0.025;entryDx=0;entryDy=0;entryPerimeter=0;" edge="1" parent="WIyWlLk6GJQsqaUBKTNV-1" source="h3pDS9H2A7vJjk51DCKi-6" target="h3pDS9H2A7vJjk51DCKi-5">
          <mxGeometry relative="1" as="geometry" />
        </mxCell>
        <mxCell id="h3pDS9H2A7vJjk51DCKi-11" style="edgeStyle=orthogonalEdgeStyle;rounded=0;orthogonalLoop=1;jettySize=auto;html=1;" edge="1" parent="WIyWlLk6GJQsqaUBKTNV-1" source="h3pDS9H2A7vJjk51DCKi-9">
          <mxGeometry relative="1" as="geometry">
            <mxPoint x="80" y="460" as="targetPoint" />
          </mxGeometry>
        </mxCell>
        <mxCell id="h3pDS9H2A7vJjk51DCKi-12" value="&lt;span style=&quot;font-size: 12px; text-wrap: wrap; background-color: rgb(251, 251, 251);&quot;&gt;安置费、档案管理费kemu_code=4 或者5；&lt;/span&gt;" style="edgeLabel;html=1;align=center;verticalAlign=middle;resizable=0;points=[];" vertex="1" connectable="0" parent="h3pDS9H2A7vJjk51DCKi-11">
          <mxGeometry x="0.0362" y="1" relative="1" as="geometry">
            <mxPoint as="offset" />
          </mxGeometry>
        </mxCell>
        <mxCell id="h3pDS9H2A7vJjk51DCKi-14" style="edgeStyle=orthogonalEdgeStyle;rounded=0;orthogonalLoop=1;jettySize=auto;html=1;" edge="1" parent="WIyWlLk6GJQsqaUBKTNV-1" source="h3pDS9H2A7vJjk51DCKi-9" target="h3pDS9H2A7vJjk51DCKi-13">
          <mxGeometry relative="1" as="geometry" />
        </mxCell>
        <mxCell id="h3pDS9H2A7vJjk51DCKi-15" value="学历认证费" style="edgeLabel;html=1;align=center;verticalAlign=middle;resizable=0;points=[];" vertex="1" connectable="0" parent="h3pDS9H2A7vJjk51DCKi-14">
          <mxGeometry x="0.1289" y="-3" relative="1" as="geometry">
            <mxPoint as="offset" />
          </mxGeometry>
        </mxCell>
        <mxCell id="h3pDS9H2A7vJjk51DCKi-9" value="支付单科目类型kemu_code" style="rhombus;whiteSpace=wrap;html=1;" vertex="1" parent="WIyWlLk6GJQsqaUBKTNV-1">
          <mxGeometry x="180" y="340" width="80" height="80" as="geometry" />
        </mxCell>
        <mxCell id="h3pDS9H2A7vJjk51DCKi-30" style="edgeStyle=orthogonalEdgeStyle;rounded=0;orthogonalLoop=1;jettySize=auto;html=1;entryX=0;entryY=0.5;entryDx=0;entryDy=0;" edge="1" parent="WIyWlLk6GJQsqaUBKTNV-1" source="h3pDS9H2A7vJjk51DCKi-10" target="h3pDS9H2A7vJjk51DCKi-21">
          <mxGeometry relative="1" as="geometry">
            <Array as="points">
              <mxPoint x="90" y="885" />
            </Array>
          </mxGeometry>
        </mxCell>
        <mxCell id="h3pDS9H2A7vJjk51DCKi-10" value="收入账&lt;div&gt;表：uf_jiaofei_detail&lt;/div&gt;&lt;div&gt;字段：&lt;br&gt;&lt;div&gt;zaixian_trade_state = 6&amp;nbsp;&lt;br&gt;&lt;/div&gt;&lt;div&gt;curr_state=6&lt;br&gt;&lt;/div&gt;&lt;div&gt;zhuanshouru_time&lt;br&gt;&lt;/div&gt;&lt;/div&gt;" style="rounded=0;whiteSpace=wrap;html=1;align=left;" vertex="1" parent="WIyWlLk6GJQsqaUBKTNV-1">
          <mxGeometry x="-20" y="460" width="210" height="110" as="geometry" />
        </mxCell>
        <mxCell id="h3pDS9H2A7vJjk51DCKi-28" style="edgeStyle=orthogonalEdgeStyle;rounded=0;orthogonalLoop=1;jettySize=auto;html=1;" edge="1" parent="WIyWlLk6GJQsqaUBKTNV-1" source="h3pDS9H2A7vJjk51DCKi-13" target="h3pDS9H2A7vJjk51DCKi-21">
          <mxGeometry relative="1" as="geometry" />
        </mxCell>
        <mxCell id="h3pDS9H2A7vJjk51DCKi-13" value="&lt;div&gt;往来账&lt;/div&gt;&lt;div&gt;表：uf_jiaofei_detail&lt;br&gt;&lt;/div&gt;&lt;div&gt;字段：&lt;/div&gt;&lt;div&gt;zaixian_trade_state = 5&lt;br&gt;&lt;/div&gt;&lt;div&gt;curr_state=5&lt;br&gt;&lt;/div&gt;&lt;div&gt;is_wanglaizhang=1&lt;br&gt;&lt;/div&gt;" style="rounded=0;whiteSpace=wrap;html=1;align=left;" vertex="1" parent="WIyWlLk6GJQsqaUBKTNV-1">
          <mxGeometry x="280" y="460" width="210" height="110" as="geometry" />
        </mxCell>
        <mxCell id="h3pDS9H2A7vJjk51DCKi-23" style="edgeStyle=orthogonalEdgeStyle;rounded=0;orthogonalLoop=1;jettySize=auto;html=1;" edge="1" parent="WIyWlLk6GJQsqaUBKTNV-1" source="h3pDS9H2A7vJjk51DCKi-16">
          <mxGeometry relative="1" as="geometry">
            <mxPoint x="640" y="680" as="targetPoint" />
          </mxGeometry>
        </mxCell>
        <mxCell id="h3pDS9H2A7vJjk51DCKi-16" value="&lt;div&gt;往来账&lt;/div&gt;&lt;div&gt;&lt;div&gt;表：uf_jiaofei_detail&lt;br&gt;&lt;/div&gt;&lt;div&gt;字段：&lt;/div&gt;&lt;/div&gt;&lt;div&gt;&lt;span style=&quot;background-color: initial;&quot;&gt;curr_state=13&lt;/span&gt;&lt;br&gt;&lt;/div&gt;&lt;div&gt;&lt;br&gt;&lt;/div&gt;" style="rounded=0;whiteSpace=wrap;html=1;align=left;" vertex="1" parent="WIyWlLk6GJQsqaUBKTNV-1">
          <mxGeometry x="535" y="460" width="210" height="110" as="geometry" />
        </mxCell>
        <mxCell id="h3pDS9H2A7vJjk51DCKi-18" style="edgeStyle=orthogonalEdgeStyle;rounded=0;orthogonalLoop=1;jettySize=auto;html=1;entryX=0.45;entryY=-0.075;entryDx=0;entryDy=0;entryPerimeter=0;" edge="1" parent="WIyWlLk6GJQsqaUBKTNV-1" source="h3pDS9H2A7vJjk51DCKi-2" target="h3pDS9H2A7vJjk51DCKi-3">
          <mxGeometry relative="1" as="geometry">
            <Array as="points">
              <mxPoint x="420" y="127" />
            </Array>
          </mxGeometry>
        </mxCell>
        <mxCell id="h3pDS9H2A7vJjk51DCKi-21" value="结束" style="shape=hexagon;perimeter=hexagonPerimeter2;whiteSpace=wrap;html=1;fixedSize=1;" vertex="1" parent="WIyWlLk6GJQsqaUBKTNV-1">
          <mxGeometry x="325" y="860" width="120" height="50" as="geometry" />
        </mxCell>
        <mxCell id="h3pDS9H2A7vJjk51DCKi-26" style="edgeStyle=orthogonalEdgeStyle;rounded=0;orthogonalLoop=1;jettySize=auto;html=1;entryX=0.5;entryY=0;entryDx=0;entryDy=0;" edge="1" parent="WIyWlLk6GJQsqaUBKTNV-1" source="h3pDS9H2A7vJjk51DCKi-24" target="h3pDS9H2A7vJjk51DCKi-25">
          <mxGeometry relative="1" as="geometry" />
        </mxCell>
        <mxCell id="h3pDS9H2A7vJjk51DCKi-24" value="&lt;div&gt;往来账有线上退费&lt;/div&gt;&lt;div&gt;&lt;div&gt;表：uf_refund_record&lt;br&gt;&lt;/div&gt;&lt;div&gt;字段：&lt;/div&gt;&lt;/div&gt;&lt;div&gt;line_off =0&lt;br&gt;&lt;/div&gt;&lt;div&gt;&lt;span style=&quot;background-color: initial;&quot;&gt;refund_state&lt;/span&gt;&lt;span style=&quot;background-color: initial;&quot;&gt;=0&lt;/span&gt;&lt;br&gt;&lt;/div&gt;&lt;div&gt;&lt;span style=&quot;background-color: initial;&quot;&gt;&lt;br&gt;&lt;/span&gt;&lt;/div&gt;&lt;div&gt;&lt;br&gt;&lt;/div&gt;" style="rounded=0;whiteSpace=wrap;html=1;align=left;" vertex="1" parent="WIyWlLk6GJQsqaUBKTNV-1">
          <mxGeometry x="545" y="680" width="210" height="110" as="geometry" />
        </mxCell>
        <mxCell id="h3pDS9H2A7vJjk51DCKi-27" style="edgeStyle=orthogonalEdgeStyle;rounded=0;orthogonalLoop=1;jettySize=auto;html=1;" edge="1" parent="WIyWlLk6GJQsqaUBKTNV-1" source="h3pDS9H2A7vJjk51DCKi-25" target="h3pDS9H2A7vJjk51DCKi-21">
          <mxGeometry relative="1" as="geometry" />
        </mxCell>
        <mxCell id="h3pDS9H2A7vJjk51DCKi-25" value="&lt;div&gt;增加退费定时任务&lt;/div&gt;&lt;div&gt;表：uf_timing_task&lt;/div&gt;&lt;div&gt;&lt;span style=&quot;background-color: initial;&quot;&gt;字段：&lt;/span&gt;&lt;/div&gt;&lt;div&gt;task_type = 15&lt;span style=&quot;background-color: initial;&quot;&gt;&lt;br&gt;&lt;/span&gt;&lt;/div&gt;&lt;div&gt;&lt;br&gt;&lt;/div&gt;" style="rounded=0;whiteSpace=wrap;html=1;align=left;" vertex="1" parent="WIyWlLk6GJQsqaUBKTNV-1">
          <mxGeometry x="545" y="830" width="210" height="110" as="geometry" />
        </mxCell>
      </root>
    </mxGraphModel>
  </diagram>
</mxfile>
